Coordinates
version=1
nRows=29
nColumns=24
inDegrees=yes

Units are S.I. units (second, meters, Newtons, ...)
Angles are in degrees.

endheader
time	pelvis_tilt	pelvis_list	pelvis_rotation	pelvis_tx	pelvis_ty	pelvis_tz	hip_flexion_r	hip_adduction_r	hip_rotation_r	knee_angle_r	ankle_angle_r	subtalar_angle_r	mtp_angle_r	hip_flexion_l	hip_adduction_l	hip_rotation_l	knee_angle_l	ankle_angle_l	subtalar_angle_l	mtp_angle_l	lumbar_extension	lumbar_bending	lumbar_rotation
      1.17983333	      3.89500155	      8.69771298	     -3.77309099	      0.15485607	      1.02391062	      0.25157848	     11.87476210	     -9.88975916	      0.05161419	    -65.58187957	      5.21989407	    -18.79084089	     -3.89934251	      5.04494836	     12.16312933	     -0.46168813	    -11.99211215	      0.32735338	    -16.43822354	      7.19371092	     -7.19527677	    -10.52196175	      6.63063288
      1.18400000	      3.86436840	      8.56764274	     -3.75220220	      0.15992859	      1.02462080	      0.25139088	     12.39288500	     -9.63937633	      0.13497714	    -65.11184673	      5.44705322	    -18.76906376	     -3.92255291	      4.60614054	     12.06407937	     -0.36020052	    -11.73081461	      0.43916349	    -16.43210566	      7.17456166	     -7.18803537	    -10.38800965	      6.53619382
      1.18816667	      3.83409292	      8.42471112	     -3.69562808	      0.16496481	      1.02530960	      0.25117752	     12.88161216	     -9.37532462	      0.19038108	    -64.56852522	      5.65965806	    -18.67164655	     -3.95726825	      4.16877142	     11.95581702	     -0.17929305	    -11.48000569	      0.53763709	    -16.47912903	      7.14015031	     -7.21185869	    -10.24834448	      6.33183748
      1.19233333	      3.82456001	      8.29533916	     -3.63870203	      0.17003198	      1.02601964	      0.25096355	     13.32921872	     -9.13550662	      0.23255728	    -63.95772772	      5.85273231	    -18.57368525	     -3.99315239	      3.68915307	     11.86310070	      0.01059973	    -11.18665420	      0.62174503	    -16.54125271	      7.09652670	     -7.24278887	    -10.11886712	      6.08693242
      1.19650000	      3.80208821	      8.17629713	     -3.58357820	      0.17510317	      1.02664988	      0.25076774	     13.78167613	     -8.90534537	      0.27980193	    -63.30148493	      6.03801607	    -18.46716083	     -4.01648633	      3.22488876	     11.77603217	      0.17647227	    -10.89319614	      0.71166722	    -16.57696896	      7.05937761	     -7.25465984	     -9.99922739	      5.88126206
      1.20066667	      3.78289159	      8.08352244	     -3.50953064	      0.18016902	      1.02723572	      0.25054199	     14.21839585	     -8.71716857	      0.30234772	    -62.60064347	      6.20706199	    -18.33606088	     -4.05596892	      2.74105993	     11.72340371	      0.41886123	    -10.56499353	      0.78821413	    -16.69937930	      6.98192672	     -7.27670088	     -9.90828728	      5.53191471
      1.20483333	      3.73928257	      7.95071718	     -3.44576984	      0.18524790	      1.02779516	      0.25038348	     14.65288367	     -8.46463915	      0.34860442	    -61.81793166	      6.36110459	    -18.23520206	     -4.06650158	      2.30127413	     11.60906799	      0.54680676	    -10.27457685	      0.86413136	    -16.68740884	      6.94981442	     -7.26396345	     -9.77069240	      5.39939655
      1.20900000	      3.74840597	      7.84771074	     -3.36100299	      0.19030706	      1.02835892	      0.25017387	     15.01598800	     -8.26820938	      0.35824590	    -60.99571197	      6.49561098	    -18.11803574	     -4.08791187	      1.78425466	     11.53988199	      0.78059367	     -9.94277967	      0.94884416	    -16.77440036	      6.87015547	     -7.32603029	     -9.67204136	      5.05162223
      1.21316667	      3.70186900	      7.74465391	     -3.27574714	      0.19537825	      1.02880272	      0.24999519	     15.42709826	     -8.06226219	      0.38032022	    -60.12852046	      6.62095736	    -18.00892681	     -4.10251385	      1.33690366	     11.45923753	      0.96972634	     -9.62787791	      1.01965259	    -16.82986239	      6.78450473	     -7.31620862	     -9.56936875	      4.79218930
      1.21733333	      3.67869767	      7.63917545	     -3.18716733	      0.20046169	      1.02925278	      0.24982260	     15.78936055	     -7.86104001	      0.38832639	    -59.20165042	      6.71900648	    -17.91294659	     -4.10950492	      0.86133941	     11.37271264	      1.14092486	     -9.30889954	      1.10908093	    -16.85384898	      6.71284634	     -7.32545507	     -9.46189162	      4.55296997
      1.22150000	      3.61816113	      7.53751828	     -3.10189282	      0.20554648	      1.02960660	      0.24967945	     16.18067777	     -7.65622809	      0.41391932	    -58.23396490	      6.81801897	    -17.81061943	     -4.10945105	      0.43629035	     11.28129393	      1.26680184	     -9.00509032	      1.17731857	    -16.82877771	      6.67990352	     -7.29593947	     -9.36018155	      4.39584595
      1.22566667	      3.61367367	      7.44975769	     -2.99970832	      0.21060690	      1.02998688	      0.24951104	     16.49298992	     -7.48428837	      0.40724198	    -57.22324141	      6.87103438	    -17.76073871	     -4.10930253	     -0.06904611	     11.21401559	      1.49228220	     -8.66285504	      1.26307506	    -16.89842992	      6.60275205	     -7.34594896	     -9.27887198	      4.02294417
      1.22983333	      3.58189206	      7.36526558	     -2.89871608	      0.21568789	      1.03028415	      0.24934912	     16.81934174	     -7.31856216	      0.40073007	    -56.17082912	      6.92106894	    -17.69258510	     -4.10596212	     -0.53606948	     11.14274905	      1.66794304	     -8.33693432	      1.34355622	    -16.93929228	      6.52969401	     -7.34650604	     -9.19415561	      3.75795720
      1.23400000	      3.51956796	      7.26933681	     -2.79875047	      0.22077177	      1.03051223	      0.24921482	     17.15902681	     -7.13533826	      0.40220299	    -55.06862082	      6.96270244	    -17.61849519	     -4.10300494	     -0.95872441	     11.05053912	      1.79818414	     -8.03246732	      1.41559229	    -16.91809855	      6.49266044	     -7.31461149	     -9.09498528	      3.58286185
      1.23816667	      3.48146013	      7.18266451	     -2.69213710	      0.22584545	      1.03072262	      0.24906916	     17.45603460	     -6.97308858	      0.38914939	    -53.92748188	      6.97316797	    -17.57558096	     -4.10006254	     -1.41236843	     10.96942759	      1.95538944	     -7.71724558	      1.50459900	    -16.91549746	      6.45561710	     -7.31359834	     -9.00720081	      3.34101739
      1.24233333	      3.42377568	      7.11285337	     -2.58666477	      0.23091877	      1.03084786	      0.24893622	     17.76626812	     -6.83065189	      0.38300156	    -52.76051744	      6.96625282	    -17.54737739	     -4.09686130	     -1.84344487	     10.90376987	      2.11279807	     -7.40185363	      1.59239057	    -16.92200395	      6.41865971	     -7.28811086	     -8.93781327	      3.08205984
      1.24650000	      3.40984542	      7.05370002	     -2.48159091	      0.23598120	      1.03098185	      0.24880446	     18.01511108	     -6.71097038	      0.36313941	    -51.56251848	      6.92276192	    -17.57575483	     -4.09020929	     -2.33515716	     10.85276139	      2.31468816	     -7.05847033	      1.68856051	    -16.98556495	      6.35109673	     -7.32200585	     -8.89529495	      2.69874425
      1.25066667	      3.32265378	      6.98048056	     -2.37519120	      0.24106867	      1.03098340	      0.24867850	     18.32243321	     -6.57342235	      0.35064596	    -50.31917285	      6.90722614	    -17.51209131	     -4.08564744	     -2.72176463	     10.77602776	      2.43699854	     -6.76759495	      1.76601393	    -16.96579061	      6.31693435	     -7.26147954	     -8.81254212	      2.52529750
      1.25483333	      3.27654577	      6.91098579	     -2.26783095	      0.24613305	      1.03100753	      0.24856135	     18.56626220	     -6.44710228	      0.32947033	    -49.03434652	      6.84609162	    -17.50855635	     -4.08142928	     -3.15547957	     10.70388650	      2.58195487	     -6.46949836	      1.86300011	    -16.96232190	      6.28025017	     -7.25025761	     -8.74464033	      2.27980262
      1.25900000	      3.21098503	      6.85233903	     -2.16606220	      0.25120872	      1.03094329	      0.24845353	     18.82223151	     -6.33638731	      0.31100145	    -47.72865598	      6.78415778	    -17.49283559	     -4.07707454	     -3.56640522	     10.64091270	      2.71818089	     -6.17318490	      1.96262172	    -16.95447684	      6.24779045	     -7.21715531	     -8.68669790	      2.04646025
      1.26316667	      3.16032775	      6.80845332	     -2.06438249	      0.25626248	      1.03085330	      0.24835864	     19.05079543	     -6.24564329	      0.29199288	    -46.39675239	      6.67563633	    -17.54542182	     -4.06632291	     -3.99865151	     10.59429343	      2.89318262	     -5.86356902	      2.07713363	    -16.99306788	      6.18854706	     -7.21138636	     -8.65828829	      1.68910496
      1.26733333	      3.07153593	      6.75524848	     -1.96609871	      0.26134470	      1.03068683	      0.24825744	     19.29889054	     -6.15040081	      0.26834540	    -45.02405843	      6.61650389	    -17.46507274	     -4.05914973	     -4.36830716	     10.53272933	      2.99770041	     -5.59679757	      2.16282727	    -16.96806601	      6.15820358	     -7.14724888	     -8.59917406	      1.52938956
      1.27150000	      3.03587194	      6.70423432	     -1.87177686	      0.26640172	      1.03055397	      0.24817915	     19.47021316	     -6.05997007	      0.24613628	    -43.61302970	      6.48757367	    -17.50424917	     -4.04344687	     -4.80595811	     10.47487536	      3.15601718	     -5.30877593	      2.28633877	    -16.98171693	      6.10139990	     -7.15673638	     -8.55808208	      1.22392106
      1.27566667	      2.91938269	      6.66837987	     -1.78361513	      0.27149391	      1.03025388	      0.24809992	     19.72405940	     -5.99095524	      0.22069669	    -42.19338565	      6.41742073	    -17.39894946	     -4.03359800	     -5.13414484	     10.42917129	      3.24303940	     -5.06280724	      2.38669378	    -16.95872582	      6.07470356	     -7.06090770	     -8.52346236	      1.08500495
      1.27983333	      2.86785413	      6.63245774	     -1.69664567	      0.27655565	      1.03001615	      0.24804140	     19.88266875	     -5.92314239	      0.20016967	    -40.72720555	      6.27412910	    -17.40982028	     -4.00816897	     -5.54271878	     10.38447941	      3.39590458	     -4.79701919	      2.51459629	    -16.96933707	      6.01641374	     -7.04503474	     -8.49130451	      0.78983426
      1.28400000	      2.75732007	      6.59087518	     -1.61394252	      0.28165912	      1.02966706	      0.24797192	     20.08830291	     -5.85770221	      0.16084520	    -39.23442216	      6.18197296	    -17.27766230	     -3.99333924	     -5.86732152	     10.33112065	      3.48050604	     -4.57285009	      2.62994379	    -16.94651231	      5.98974559	     -6.95141960	     -8.44038001	      0.66471034
      1.28816667	      2.68653401	      6.55707655	     -1.53414357	      0.28671567	      1.02933327	      0.24793510	     20.23213065	     -5.79587477	      0.14285370	    -37.70658051	      6.03190867	    -17.24408276	     -3.96303926	     -6.23625089	     10.28599324	      3.62251652	     -4.34366865	      2.77299794	    -16.93662294	      5.94299434	     -6.92799201	     -8.41195172	      0.42820207
      1.29233333	      2.61682628	      6.52520915	     -1.45994792	      0.29181939	      1.02897184	      0.24789098	     20.35425086	     -5.74709947	      0.09955359	    -36.15145527	      5.89852547	    -17.14742939	     -3.92230332	     -6.60198402	     10.24315349	      3.73063585	     -4.12652999	      2.91023988	    -16.93021537	      5.89138232	     -6.87415526	     -8.37616222	      0.22890409
      1.29650000	      2.50647168	      6.48623738	     -1.39152255	      0.29694992	      1.02852217	      0.24785266	     20.50449409	     -5.69468712	      0.03974636	    -34.57398802	      5.78429581	    -16.96806911	     -3.89614824	     -6.91189586	     10.19148303	      3.80063793	     -3.93328600	      3.04742259	    -16.91379053	      5.86398336	     -6.77565877	     -8.33326175	      0.11839736
